<svg xmlns="http://www.w3.org/2000/svg" width="138.959" height="21.456" viewBox="0 0 138.959 21.456">
  <g id="Group_20258" data-name="Group 20258" transform="translate(-389.061 -1538.052)">
    <g id="Group_15416" data-name="Group 15416" transform="translate(389.061 1538.052)">
      <g id="totalplaytvplus-logo" transform="translate(0 0)">
        <g id="Group_896" data-name="Group 896" transform="translate(0 0)">
          <g id="Group_895" data-name="Group 895">
            <g id="XMLID_28_">
              <rect id="XMLID_54_" width="2.712" height="13.932" transform="translate(74.442 3.323)" fill="#b7d027"/>
              <path id="XMLID_51_" d="M175.031,21.594c-1.163,0-1.921.446-1.921,1.666v2.149c0,1.339.428,2.191,1.879,2.191,1.823,0,2.074-1.628,2.074-3.121,0-1.53-.21-2.885-2.033-2.885m.585,8.024a2.492,2.492,0,0,1-2.4-1.182h-.038v4.929H170.44V19.674h2.307l.176,1.144h.038a2.994,2.994,0,0,1,2.753-1.358c2.967,0,4.13,2.326,4.13,4.982,0,2.776-1.148,5.177-4.228,5.177" transform="translate(-106.797 -12.311)" fill="#4fabd6"/>
              <path id="XMLID_50_" d="M241.691,30.145c-1.279,3.237-1.9,3.973-4.265,3.973a11.962,11.962,0,0,1-1.474-.1V31.754a9.185,9.185,0,0,0,1.084.056c1.047,0,1.3-.27,1.647-1.144l.446-1.107L235.31,20.02h2.963l2.251,6.726h.038l2.191-6.726h2.926Z" transform="translate(-147.333 -12.661)" fill="#d64437"/>
              <path id="XMLID_47_" d="M219.019,27.116v-3.74c0-2.791-1.065-3.916-3.916-3.916a9.794,9.794,0,0,0-4.67,1.163l.852,1.861a7.453,7.453,0,0,1,3.567-1.009c.987,0,1.433.289,1.433,1.2v.461c-2.423-.019-6.084.311-6.084,3.53a2.858,2.858,0,0,0,3.14,2.967,5.131,5.131,0,0,0,3.237-1.152.7.7,0,0,0,.026.139c.3.938,1.906,1,3.125.938l.1-2.071C219.315,27.48,219.019,27.413,219.019,27.116Zm-2.675-.094a3.775,3.775,0,0,1-2.209.773,1.2,1.2,0,0,1-1.279-1.317c0-1.763,2.209-1.782,3.489-1.782Z" transform="translate(-131.643 -12.311)" fill="#efab00"/>
              <g id="XMLID_37_" transform="translate(21.836 3.323)">
                <path id="XMLID_44_" d="M87.05,21.613c-1.707,0-2.232,1.028-2.232,2.93,0,1.939.544,3,2.251,3,1.669,0,2.209-1.047,2.209-3,0-1.9-.525-2.93-2.228-2.93m0,8.005c-3.372,0-5-2.056-5-5.079,0-2.828,1.455-5.079,5-5.079,3.275,0,4.982,1.939,4.982,5.079,0,3-1.591,5.079-4.982,5.079" transform="translate(-73.4 -15.634)" fill="#fff"/>
                <path id="XMLID_43_" d="M58.99,11.5v2.423h3.646V24.592H65.5V13.923h3.646V11.5Z" transform="translate(-58.99 -10.66)" fill="#fff"/>
                <path id="XMLID_42_" d="M115.944,23.382c-1.4.034-1.531-.146-1.538-.975V17.928h2.247V15.737h-2.247V13.16h-2.7v2.577H110.1v2.191h1.591v4.633c0,2.345.641,3.083,3.275,3.083.484,0,.949-.06,1.684-.135V23.333C116.451,23.352,116.286,23.375,115.944,23.382Z" transform="translate(-90.928 -11.697)" fill="#fff"/>
                <rect id="XMLID_41_" width="2.712" height="13.932" transform="translate(37.557)" fill="#fff"/>
                <path id="XMLID_38_" d="M139.359,27.116v-3.74c0-2.791-1.065-3.916-3.916-3.916a9.794,9.794,0,0,0-4.67,1.163l.852,1.861a7.453,7.453,0,0,1,3.567-1.009c.987,0,1.433.289,1.433,1.2v.461c-2.423-.019-6.084.311-6.084,3.53a2.858,2.858,0,0,0,3.14,2.967,5.131,5.131,0,0,0,3.237-1.152.7.7,0,0,0,.026.139c.3.938,1.906,1,3.125.938l.1-2.071C139.655,27.48,139.359,27.413,139.359,27.116Zm-2.675-.094a3.775,3.775,0,0,1-2.209.773,1.2,1.2,0,0,1-1.279-1.317c0-1.763,2.209-1.782,3.489-1.782Z" transform="translate(-103.7 -15.634)" fill="#fff"/>
              </g>
              <g id="XMLID_29_">
                <path id="XMLID_36_" d="M6.377,4.122a.418.418,0,0,0,0-.792L1.466.495C1.088.277.78.454.78.893V6.561c0,.435.308.615.686.4Z" transform="translate(-0.78 -0.402)" fill="#efab00"/>
                <path id="XMLID_35_" d="M6.377,23.452a.418.418,0,0,0,0-.792l-4.91-2.836c-.379-.218-.686-.041-.686.4v5.668c0,.435.308.615.686.4Z" transform="translate(-0.78 -12.481)" fill="#7d54aa"/>
                <path id="XMLID_34_" d="M6.377,42.792a.418.418,0,0,0,0-.792l-4.91-2.836c-.379-.218-.686-.041-.686.4v5.668c0,.435.308.615.686.4Z" transform="translate(-0.78 -24.566)" fill="#d24483"/>
                <path id="XMLID_33_" d="M6.377,42.792a.418.418,0,0,0,0-.792l-4.91-2.836c-.379-.218-.686-.041-.686.4v5.668c0,.435.308.615.686.4Z" transform="translate(-0.78 -24.566)" fill="#d44384"/>
                <path id="XMLID_32_" d="M17.53,16.233c0,.435.308.615.686.4L23.123,13.8a.418.418,0,0,0,0-.792l-4.907-2.832c-.379-.218-.686-.041-.686.4v5.661Z" transform="translate(-11.247 -6.451)" fill="#4fabd6"/>
                <path id="XMLID_31_" d="M17.53,35.573c0,.435.308.615.686.4l4.907-2.832a.418.418,0,0,0,0-.792l-4.907-2.832c-.379-.218-.686-.041-.686.4v5.661Z" transform="translate(-11.247 -18.536)" fill="#b7d027"/>
                <path id="XMLID_30_" d="M34.27,25.891c0,.435.308.615.686.4l4.907-2.832a.418.418,0,0,0,0-.792l-4.907-2.84c-.379-.218-.686-.041-.686.4v5.668Z" transform="translate(-21.707 -12.481)" fill="#d64437"/>
              </g>
            </g>
          </g>
        </g>
        <g id="Group_897" data-name="Group 897" transform="translate(103.582 4.156)">
          <path id="Path_1063" data-name="Path 1063" d="M283.31,13.543V24.714H280.7V13.543H276.91V11.48h10.17v2.063Z" transform="translate(-276.91 -11.48)" fill="#fff"/>
          <path id="Path_1064" data-name="Path 1064" d="M312.151,24.714h-2.918L304.75,11.48h2.772L310.774,21.9l3.294-10.421h2.562Z" transform="translate(-294.307 -11.48)" fill="#fff"/>
          <path id="Path_1065" data-name="Path 1065" d="M347.2,18.916v4.621h-2.4V18.916H340.18v-2.4H344.8V11.89h2.4v4.621h4.621v2.4H347.2Z" transform="translate(-316.446 -11.736)" fill="#fff"/>
        </g>
      </g>
    </g>
  </g>
</svg>
