<?xml version="1.0" encoding="utf-8"?>
<!-- Generator: Adobe Illustrator 26.2.1, SVG Export Plug-In . SVG Version: 6.00 Build 0)  -->
<svg version="1.1" id="Capa_1" xmlns="http://www.w3.org/2000/svg" xmlns:xlink="http://www.w3.org/1999/xlink" x="0px" y="0px"
	 viewBox="0 0 139.2 21.5" style="enable-background:new 0 0 139.2 21.5;" xml:space="preserve">
<style type="text/css">
	.st0{fill:#B7D027;}
	.st1{fill:#4FABD6;}
	.st2{fill:#D64437;}
	.st3{fill:#EFAB00;}
	.st4{fill:#22223E;}
	.st5{fill:#7D54AA;}
	.st6{fill:#D24483;}
	.st7{fill:#D44384;}
	.st8{display:none;}
	.st9{display:inline;fill:#404040;}
	.st10{fill:#404040;}
</style>
<g id="Group_20259" transform="translate(-221.361 -1536)">
	<g id="totalplaytvplus-logo" transform="translate(221.361 1536)">
		<g id="Group_896" transform="translate(0 0)">
			<g id="Group_895">
				<g id="XMLID_28_">
					<rect id="XMLID_54_" x="74.4" y="3.3" class="st0" width="2.7" height="13.9"/>
					<path id="XMLID_51_" class="st1" d="M68.2,9.3c-1.2,0-1.9,0.4-1.9,1.7v2.1c0,1.3,0.4,2.2,1.9,2.2c1.8,0,2.1-1.6,2.1-3.1
						C70.3,10.6,70.1,9.3,68.2,9.3 M68.8,17.3c-1,0.1-1.9-0.4-2.4-1.2h0v4.9h-2.7V7.4h2.3l0.2,1.1h0c0.6-0.9,1.7-1.4,2.8-1.4
						c3,0,4.1,2.3,4.1,5C73,14.9,71.9,17.3,68.8,17.3"/>
					<path id="XMLID_50_" class="st2" d="M94.4,17.5c-1.3,3.2-1.9,4-4.3,4c-0.5,0-1,0-1.5-0.1v-2.3c0.4,0,0.7,0.1,1.1,0.1
						c1,0,1.3-0.3,1.6-1.1l0.4-1.1L88,7.4h3l2.3,6.7h0l2.2-6.7h2.9L94.4,17.5z"/>
					<path id="XMLID_47_" class="st3" d="M87.4,14.8v-3.7c0-2.8-1.1-3.9-3.9-3.9c-1.6,0-3.2,0.4-4.7,1.2l0.9,1.9
						c1.1-0.6,2.3-1,3.6-1c1,0,1.4,0.3,1.4,1.2v0.5c-2.4,0-6.1,0.3-6.1,3.5c-0.1,1.6,1.2,2.9,2.7,3c0.1,0,0.3,0,0.4,0
						c1.2,0,2.3-0.4,3.2-1.2c0,0,0,0.1,0,0.1c0.3,0.9,1.9,1,3.1,0.9l0.1-2.1C87.7,15.2,87.4,15.1,87.4,14.8z M84.7,14.7
						c-0.6,0.5-1.4,0.8-2.2,0.8c-0.7,0-1.2-0.5-1.3-1.1c0-0.1,0-0.1,0-0.2c0-1.8,2.2-1.8,3.5-1.8V14.7z"/>
					<g id="XMLID_37_" transform="translate(21.835 3.323)">
						<path id="XMLID_44_" class="st4" d="M13.7,6c-1.7,0-2.2,1-2.2,2.9c0,1.9,0.5,3,2.3,3c1.7,0,2.2-1,2.2-3C15.9,7,15.4,6,13.7,6
							 M13.7,14c-3.4,0-5-2.1-5-5.1c0-2.8,1.5-5.1,5-5.1c3.3,0,5,1.9,5,5.1C18.6,11.9,17,14,13.7,14"/>
						<path id="XMLID_43_" class="st4" d="M0,0.8v2.4h3.6v10.7h2.9V3.3h3.6V0.8H0z"/>
						<path id="XMLID_42_" class="st4" d="M25,11.7c-1.4,0-1.5-0.1-1.5-1V6.2h2.2V4h-2.2V1.5h-2.7V4h-1.6v2.2h1.6v4.6
							c0,2.3,0.6,3.1,3.3,3.1c0.5,0,0.9-0.1,1.7-0.1v-2.2C25.5,11.7,25.4,11.7,25,11.7z"/>
						<rect id="XMLID_41_" x="37.6" y="0" class="st4" width="2.7" height="13.9"/>
						<path id="XMLID_38_" class="st4" d="M35.7,11.5V7.7c0-2.8-1.1-3.9-3.9-3.9c-1.6,0-3.2,0.4-4.7,1.2l0.9,1.9
							c1.1-0.6,2.3-1,3.6-1c1,0,1.4,0.3,1.4,1.2v0.5c-2.4,0-6.1,0.3-6.1,3.5c-0.1,1.6,1.2,2.9,2.7,3c0.1,0,0.3,0,0.4,0
							c1.2,0,2.3-0.4,3.2-1.2c0,0,0,0.1,0,0.1c0.3,0.9,1.9,1,3.1,0.9l0.1-2.1C36,11.8,35.7,11.8,35.7,11.5z M33,11.4
							c-0.6,0.5-1.4,0.8-2.2,0.8c-0.7,0-1.2-0.5-1.3-1.1c0-0.1,0-0.1,0-0.2c0-1.8,2.2-1.8,3.5-1.8V11.4z"/>
					</g>
					<g id="XMLID_29_">
						<path id="XMLID_36_" class="st3" d="M5.6,3.7c0.2-0.1,0.3-0.3,0.3-0.5c0-0.1-0.1-0.2-0.3-0.3L0.7,0.1C0.3-0.1,0,0.1,0,0.5v5.7
							c0,0.4,0.3,0.6,0.7,0.4L5.6,3.7z"/>
						<path id="XMLID_35_" class="st5" d="M5.6,11c0.2-0.1,0.3-0.3,0.3-0.5c0-0.1-0.1-0.2-0.3-0.3L0.7,7.3C0.3,7.1,0,7.3,0,7.7v5.7
							c0,0.4,0.3,0.6,0.7,0.4L5.6,11z"/>
						<path id="XMLID_34_" class="st6" d="M5.6,18.2c0.2-0.1,0.3-0.3,0.3-0.5c0-0.1-0.1-0.2-0.3-0.3l-4.9-2.8C0.3,14.4,0,14.6,0,15
							v5.7c0,0.4,0.3,0.6,0.7,0.4L5.6,18.2z"/>
						<path id="XMLID_33_" class="st7" d="M5.6,18.2c0.2-0.1,0.3-0.3,0.3-0.5c0-0.1-0.1-0.2-0.3-0.3l-4.9-2.8C0.3,14.4,0,14.6,0,15
							v5.7c0,0.4,0.3,0.6,0.7,0.4L5.6,18.2z"/>
						<path id="XMLID_32_" class="st1" d="M6.3,9.8c0,0.4,0.3,0.6,0.7,0.4l4.9-2.8c0.2-0.1,0.3-0.3,0.3-0.5c0-0.1-0.1-0.2-0.3-0.3
							L7,3.7c-0.4-0.2-0.7,0-0.7,0.4L6.3,9.8L6.3,9.8z"/>
						<path id="XMLID_31_" class="st0" d="M6.3,17c0,0.4,0.3,0.6,0.7,0.4l4.9-2.8c0.2-0.1,0.3-0.3,0.3-0.5c0-0.1-0.1-0.2-0.3-0.3
							L7,11c-0.4-0.2-0.7,0-0.7,0.4V17L6.3,17z"/>
						<path id="XMLID_30_" class="st2" d="M12.6,13.4c0,0.4,0.3,0.6,0.7,0.4l4.9-2.8c0.2-0.1,0.3-0.3,0.3-0.5c0-0.1-0.1-0.2-0.3-0.3
							l-4.9-2.8c-0.4-0.2-0.7,0-0.7,0.4V13.4z"/>
					</g>
				</g>
			</g>
		</g>
		<g id="Group_897" transform="translate(103.576 4.155)" class="st8">
			<path id="Path_1063" class="st9" d="M6.4,2.1v11.2H3.8V2.1H0V0h10.2v2.1L6.4,2.1z"/>
			<path id="Path_1064" class="st9" d="M17.8,13.2h-2.9L10.4,0h2.8l3.3,10.4L19.8,0h2.6L17.8,13.2z"/>
		</g>
	</g>
</g>
<g id="Group_897_00000125582625173308369070000008272392863519863201_" transform="translate(103.582 4.156)">
	<path id="Path_1063_00000023278364907809578580000000897414912094055831_" class="st10" d="M6.4,2.1v11.2H3.8V2.1H0V0h10.2v2.1
		L6.4,2.1z"/>
	<path id="Path_1064_00000068678095229293582100000001294090229901309585_" class="st10" d="M17.8,13.2h-2.9L10.4,0h2.8l3.3,10.4
		L19.7,0h2.6L17.8,13.2z"/>
	<path id="Path_1065" class="st10" d="M30.7,7.2v4.6h-2.4V7.2h-4.6V4.8h4.6V0.2h2.4v4.6h4.6v2.4L30.7,7.2L30.7,7.2z"/>
</g>
</svg>
